<?xml version="1.0" encoding="iso-8859-1"?>
<!-- Uploaded to: SVG Repo, www.svgrepo.com, Generator: SVG Repo Mixer Tools -->
<svg height="800px" width="800px" version="1.1" id="Layer_1" xmlns="http://www.w3.org/2000/svg" xmlns:xlink="http://www.w3.org/1999/xlink" 
	 viewBox="0 0 512 512" xml:space="preserve">
<path style="fill:#3A5D74;" d="M91.137,366.704h87.668V174.14l-73.415,56.565c0,0-27.679,20.912-27.679,47.026
	c0,17.136,0,55.203,0,75.545C77.709,360.692,83.721,366.704,91.137,366.704z"/>
<path style="opacity:0.1;fill:#231F20;enable-background:new    ;" d="M96.172,361.109c0-20.341,0-65.719,0-82.854
	c0-21.747,27.679-39.717,27.679-39.717l54.952-42.339V174.14l-73.415,56.565c0,0-27.679,20.912-27.679,47.026
	c0,17.136,0,55.203,0,75.545c0,7.416,6.012,13.428,13.428,13.428h6.269C96.622,365,96.172,363.109,96.172,361.109z"/>
<path style="fill:#3A5D74;" d="M406.611,230.706l-73.416-56.565v192.564h87.669c7.416,0,13.428-6.012,13.428-13.428
	c0-20.341,0-58.408,0-75.545C434.29,251.617,406.611,230.706,406.611,230.706z"/>
<path style="fill:#CAE9F7;" d="M255.999,0c-43.87,0-79.433,35.562-79.433,79.433v307.731c0,11.964,9.699,21.664,21.663,21.664
	h115.54c11.964,0,21.663-9.699,21.663-21.664V266.02v-26.856V79.433C335.432,35.562,299.87,0,255.999,0z"/>
<path style="fill:#3A5D74;" d="M293.516,71.448c-5.125-16.548-20.201-27.665-37.515-27.665c-17.315,0-32.392,11.118-37.515,27.665
	c-0.841,2.717-0.342,5.671,1.345,7.961c1.689,2.288,4.362,3.64,7.205,3.64h57.928c2.844,0,5.519-1.352,7.206-3.64
	C293.856,77.119,294.357,74.165,293.516,71.448z"/>
<path style="fill:#FF9737;" d="M312.835,400.841c-0.797-3.585-3.976-6.135-7.647-6.135h-98.375c-3.673,0-6.852,2.55-7.647,6.135
	c-1.621,7.306-2.445,14.839-2.445,22.388c0,39.749,22.689,75.211,56.458,88.245c0.908,0.35,1.864,0.526,2.821,0.526
	c0.956,0,1.913-0.175,2.821-0.526c33.769-13.034,56.458-48.497,56.458-88.245C315.278,415.679,314.457,408.146,312.835,400.841z"/>
<g>
	<path style="opacity:0.1;fill:#231F20;enable-background:new    ;" d="M195.03,387.164V79.433
		c0-40.746,30.684-74.305,70.201-78.881C262.201,0.2,259.124,0,255.999,0c-43.87,0-79.433,35.562-79.433,79.433v307.731
		c0,11.964,9.699,21.664,21.663,21.664h18.463C204.729,408.827,195.03,399.128,195.03,387.164z"/>
	<path style="opacity:0.1;fill:#231F20;enable-background:new    ;" d="M215.185,432.439c0-7.585,0.826-15.152,2.455-22.493
		c0.8-3.602,3.994-6.165,7.683-6.165h88.116c-0.188-0.984-0.388-1.965-0.604-2.941c-0.797-3.585-3.976-6.135-7.647-6.135h-98.375
		c-3.673,0-6.852,2.55-7.647,6.135c-1.621,7.306-2.445,14.839-2.445,22.388c0,39.749,22.689,75.211,56.458,88.245
		c0.486,0.187,0.984,0.321,1.489,0.407C230.487,494.968,215.185,465.153,215.185,432.439z"/>
</g>
<path style="fill:#90C8EC;" d="M176.566,366.704v20.46c0,11.964,9.699,21.664,21.663,21.664h115.54
	c11.964,0,21.663-9.699,21.663-21.664v-20.46H176.566z"/>
<path style="fill:#3A5D74;" d="M255.999,443.698c-4.635,0-8.392-3.758-8.392-8.392V319.767c0-4.635,3.758-8.392,8.392-8.392
	c4.635,0,8.392,3.758,8.392,8.392v115.539C264.392,439.94,260.634,443.698,255.999,443.698z"/>
</svg>