<?xml version="1.0" standalone="no"?>
<!DOCTYPE svg PUBLIC "-//W3C//DTD SVG 20010904//EN"
 "http://www.w3.org/TR/2001/REC-SVG-20010904/DTD/svg10.dtd">
<svg version="1.0" xmlns="http://www.w3.org/2000/svg"
 width="3107.000000pt" height="3274.000000pt" viewBox="0 0 3107.000000 3274.000000"
 preserveAspectRatio="xMidYMid meet">

<g transform="translate(0.000000,3274.000000) scale(0.100000,-0.100000)"
fill="#000000" stroke="none">
<path d="M15367 30770 c-21 -53 -49 -1185 -77 -3120 -10 -680 -16 -1003 -40
-2035 -5 -231 -14 -748 -20 -1150 -6 -401 -15 -908 -20 -1125 -15 -628 -29
-1349 -40 -2120 -6 -393 -17 -974 -25 -1290 -8 -316 -16 -750 -20 -965 -3
-214 -7 -509 -10 -655 -3 -146 -10 -542 -15 -880 -6 -338 -17 -905 -25 -1260
-8 -355 -19 -958 -25 -1340 -12 -789 -25 -1480 -40 -2100 -6 -234 -15 -758
-20 -1165 -5 -407 -17 -1014 -25 -1350 -8 -335 -22 -1053 -30 -1595 -9 -542
-24 -1392 -35 -1890 -19 -903 -31 -1560 -50 -2695 -5 -330 -12 -652 -15 -715
-9 -206 -20 -1034 -20 -1485 l0 -440 39 -73 c60 -112 148 -201 253 -255 49
-25 107 -51 131 -58 24 -7 48 -21 53 -31 14 -25 104 -26 118 0 5 9 29 23 53
30 23 7 81 32 127 55 150 75 261 210 296 361 14 59 14 143 5 729 -13 889 -28
1738 -40 2332 -16 791 -32 1730 -50 2925 -6 366 -15 829 -20 1030 -5 201 -14
691 -20 1090 -10 750 -23 1456 -40 2190 -5 234 -12 630 -15 880 -10 778 -25
1601 -35 1945 -5 182 -14 665 -20 1075 -19 1400 -30 2045 -40 2415 -5 204 -14
687 -20 1075 -11 763 -22 1405 -45 2545 -8 402 -20 1070 -25 1485 -6 415 -15
913 -20 1105 -10 351 -22 1034 -40 2345 -5 388 -16 986 -24 1330 -8 344 -17
861 -21 1150 -11 1061 -31 1741 -48 1700z"/>
<path d="M13026 26342 c-20 -220 -27 -413 -40 -1262 -9 -509 -20 -1109 -26
-1335 -5 -225 -14 -655 -20 -955 -6 -300 -15 -729 -20 -955 -16 -682 -30
-1275 -40 -1765 -6 -256 -15 -620 -20 -810 -5 -190 -14 -613 -20 -940 -11
-620 -22 -1131 -40 -1800 -5 -217 -14 -647 -20 -955 -5 -308 -14 -751 -20
-985 -5 -234 -14 -641 -20 -905 -34 -1585 -41 -1913 -55 -2415 -8 -305 -19
-841 -25 -1190 -6 -349 -15 -797 -20 -995 -6 -198 -15 -517 -20 -710 -5 -192
-14 -638 -20 -990 -6 -352 -15 -795 -20 -985 -5 -190 -16 -685 -25 -1100 -14
-718 -24 -1141 -45 -1975 -5 -203 -10 -503 -12 -665 l-3 -295 34 -80 c18 -44
41 -89 51 -100 10 -11 23 -30 29 -42 18 -36 141 -130 215 -164 60 -28 81 -32
180 -37 65 -3 133 0 164 7 149 32 293 148 367 296 l40 80 4 230 c4 273 -12
1203 -39 2230 -11 407 -24 1001 -30 1320 -6 319 -17 832 -25 1140 -8 308 -19
805 -25 1105 -22 1166 -31 1574 -40 1795 -5 127 -14 527 -20 890 -11 739 -26
1402 -40 1880 -5 176 -14 568 -20 870 -6 303 -15 728 -20 945 -5 217 -14 609
-20 870 -5 261 -12 554 -15 650 -3 96 -10 443 -15 770 -6 327 -15 739 -20 915
-11 359 -25 973 -40 1850 -6 325 -17 824 -25 1110 -8 286 -19 786 -25 1110 -5
325 -12 651 -15 725 -10 229 -35 1469 -45 2213 -13 976 -33 1465 -60 1482 -4
2 -10 -30 -14 -73z"/>
<path d="M17856 26338 c-22 -178 -36 -644 -56 -1843 -14 -797 -27 -1417 -45
-2130 -8 -319 -24 -1041 -35 -1605 -11 -564 -24 -1153 -30 -1310 -5 -157 -14
-575 -20 -930 -5 -355 -14 -825 -20 -1045 -17 -691 -29 -1242 -40 -1780 -6
-286 -19 -884 -30 -1330 -18 -736 -30 -1302 -45 -2140 -3 -165 -12 -517 -20
-782 -8 -265 -19 -765 -25 -1110 -5 -345 -12 -725 -15 -843 -28 -1080 -36
-1403 -45 -1925 -6 -330 -15 -746 -20 -925 -14 -442 -24 -931 -50 -2295 -5
-269 -16 -735 -25 -1035 -9 -300 -15 -651 -13 -780 l3 -235 38 -86 c103 -234
337 -360 595 -320 214 33 402 213 442 423 10 50 0 988 -15 1453 -5 158 -34
1402 -33 1435 2 114 -27 1434 -47 2090 -8 261 -19 799 -25 1195 -6 396 -19
1033 -30 1415 -10 382 -22 866 -25 1075 -3 209 -10 544 -16 745 -12 490 -36
1572 -49 2230 -6 294 -15 708 -20 920 -5 212 -14 597 -20 855 -5 259 -12 567
-15 685 -3 118 -10 469 -15 780 -6 311 -15 705 -20 875 -6 171 -17 659 -25
1085 -8 426 -21 1054 -30 1395 -8 341 -19 872 -25 1180 -6 308 -15 722 -20
920 -14 498 -28 1185 -40 1935 -22 1340 -36 1779 -60 1803 -4 5 -10 -15 -14
-45z"/>
<path d="M10907 22309 c-21 -74 -49 -796 -77 -1934 -6 -225 -17 -570 -25 -765
-8 -195 -22 -632 -30 -970 -8 -338 -22 -775 -30 -970 -8 -195 -19 -546 -25
-780 -6 -234 -15 -542 -20 -685 -16 -426 -29 -839 -45 -1400 -8 -291 -21 -696
-29 -900 -8 -203 -20 -579 -26 -835 -12 -490 -23 -857 -40 -1230 -5 -124 -14
-423 -20 -665 -6 -242 -14 -543 -20 -670 -13 -329 -29 -817 -40 -1285 -6 -223
-17 -565 -25 -760 -8 -195 -19 -535 -25 -755 -16 -629 -29 -1050 -40 -1315
-20 -459 -29 -960 -20 -1038 25 -211 151 -391 336 -479 57 -27 88 -35 156 -40
171 -12 290 33 415 156 87 86 132 171 164 308 22 97 23 99 11 453 -7 195 -17
510 -22 700 -6 190 -17 554 -25 810 -8 256 -22 704 -30 995 -8 292 -17 582
-20 645 -10 211 -49 1437 -65 2025 -6 209 -15 463 -20 565 -5 102 -14 379 -20
615 -5 237 -12 484 -15 550 -10 219 -34 964 -45 1380 -6 226 -17 581 -25 790
-8 209 -19 549 -25 755 -25 903 -31 1116 -45 1460 -8 201 -19 545 -25 765 -11
466 -15 599 -35 1105 -8 206 -19 587 -25 845 -5 259 -12 504 -15 545 -11 154
-25 600 -35 1083 -12 570 -25 891 -38 926 l-9 25 -6 -25z"/>
<path d="M20137 22066 c-18 -47 -43 -541 -57 -1126 -14 -579 -28 -1111 -35
-1250 -13 -272 -26 -665 -35 -1080 -6 -245 -15 -526 -20 -625 -5 -99 -19 -506
-30 -905 -11 -399 -28 -963 -39 -1255 -11 -291 -25 -696 -31 -900 -15 -514
-29 -945 -40 -1245 -5 -140 -14 -446 -20 -680 -6 -234 -17 -576 -25 -760 -8
-184 -19 -537 -25 -785 -6 -247 -15 -567 -20 -710 -25 -657 -49 -1377 -85
-2530 -8 -264 -29 -907 -46 -1430 -37 -1142 -47 -1565 -36 -1637 35 -243 238
-459 462 -491 109 -16 213 1 305 49 97 51 209 168 254 267 73 159 72 106 36
1407 -6 212 -15 504 -20 650 -14 385 -28 824 -45 1420 -9 289 -20 629 -25 755
-5 127 -14 428 -20 670 -6 242 -15 541 -20 665 -18 420 -29 774 -40 1260 -6
267 -17 638 -25 825 -8 187 -20 529 -25 760 -6 231 -19 683 -30 1005 -11 322
-24 758 -30 970 -6 212 -19 639 -30 950 -25 736 -29 846 -40 1340 -6 228 -17
573 -25 765 -8 193 -19 548 -25 790 -6 242 -15 559 -20 705 -20 541 -30 878
-40 1365 -12 537 -23 763 -38 790 -8 16 -10 16 -15 1z"/>
<path d="M8722 16283 c-23 -91 -50 -392 -82 -913 -6 -96 -17 -251 -25 -345 -8
-93 -22 -288 -30 -431 -8 -144 -19 -303 -25 -354 -6 -50 -19 -239 -30 -418
-11 -179 -24 -362 -30 -407 -5 -44 -16 -199 -25 -345 -9 -146 -22 -335 -30
-420 -8 -85 -19 -245 -25 -355 -6 -110 -17 -267 -25 -350 -8 -82 -17 -190 -20
-240 -28 -436 -37 -563 -45 -645 -5 -52 -17 -203 -25 -335 -9 -132 -21 -267
-26 -300 -6 -33 -14 -186 -18 -340 -9 -290 -11 -328 -38 -605 -8 -91 -16 -262
-16 -380 -1 -212 -1 -216 26 -284 15 -37 27 -77 27 -88 0 -39 141 -202 220
-256 150 -100 379 -95 534 12 56 39 170 150 192 187 28 48 64 131 85 192 32
96 28 398 -11 757 -5 47 -12 137 -15 200 -10 173 -33 504 -49 690 -8 91 -18
219 -21 285 -3 66 -15 201 -25 300 -10 99 -24 279 -30 400 -6 121 -20 301 -30
400 -11 99 -22 239 -25 310 -4 72 -13 211 -21 310 -23 279 -32 406 -44 590 -6
94 -17 238 -25 320 -8 83 -21 267 -30 410 -8 143 -22 328 -31 412 -8 83 -21
262 -29 397 -8 136 -21 319 -29 409 -8 89 -20 239 -26 332 -27 447 -63 833
-82 889 -17 53 -35 56 -46 9z"/>
<path d="M22325 16257 c-21 -33 -32 -102 -40 -247 -10 -198 -25 -421 -40 -610
-8 -96 -22 -290 -30 -430 -8 -140 -22 -316 -29 -390 -8 -74 -20 -223 -26 -330
-6 -107 -22 -330 -35 -495 -13 -165 -27 -345 -30 -400 -3 -55 -12 -174 -20
-265 -8 -91 -21 -275 -30 -410 -8 -135 -24 -346 -35 -470 -10 -124 -24 -306
-30 -405 -6 -99 -19 -272 -30 -385 -10 -113 -22 -261 -25 -330 -4 -69 -13
-174 -21 -235 -7 -60 -14 -146 -14 -190 0 -103 -16 -341 -41 -623 -11 -122
-24 -288 -29 -370 -5 -81 -16 -262 -25 -402 -17 -263 -15 -356 11 -457 35
-140 142 -287 264 -366 154 -98 362 -102 518 -11 26 15 86 67 135 116 68 69
87 95 87 116 0 16 10 48 22 73 53 110 67 252 49 514 -6 94 -16 251 -22 350 -6
99 -19 278 -30 397 -10 119 -19 299 -19 400 0 101 -7 228 -14 283 -8 55 -21
192 -30 305 -9 113 -25 320 -36 460 -11 140 -27 356 -35 480 -8 124 -22 302
-30 395 -8 94 -19 249 -25 345 -6 96 -15 229 -20 295 -5 66 -16 215 -25 330
-8 116 -24 329 -35 475 -11 146 -29 393 -40 550 -11 157 -26 366 -34 465 -8
99 -17 230 -21 290 -3 61 -15 220 -25 355 -11 135 -26 364 -35 510 -15 265
-19 304 -38 328 -14 18 -25 15 -42 -11z"/>
</g>
</svg>
